Coordinates
version=1
nRows=8
nColumns=36
inDegrees=yes

Units are S.I. units (second, meters, Newtons, ...)
If the header above contains a line with 'inDegrees', this indicates whether rotational values are in degrees (yes) or radians (no).

endheader
time	pelvis_tilt	pelvis_list	pelvis_rotation	pelvis_tx	pelvis_ty	pelvis_tz	hip_flexion_r	hip_adduction_r	hip_rotation_r	knee_angle_r	knee_angle_r_beta	ankle_angle_r	subtalar_angle_r	mtp_angle_r	hip_flexion_l	hip_adduction_l	hip_rotation_l	knee_angle_l	knee_angle_l_beta	ankle_angle_l	subtalar_angle_l	mtp_angle_l	lumbar_extension	lumbar_bending	lumbar_rotation	arm_flex_r	arm_add_r	arm_rot_r	elbow_flex_r	pro_sup_r	arm_flex_l	arm_add_l	arm_rot_l	elbow_flex_l	pro_sup_l
      0.00000000	      0.20982366	     -0.89737528	     -0.93181762	     -0.16133678	      0.90568356	     -0.58735270	     -2.17565349	     -3.19757157	      1.52275801	      2.83916189	      0.04955272	      9.73315722	      0.70289560	     -6.51791225	     -3.00139446	     -5.39107487	     -6.67067110	      1.48496570	      0.02591754	      8.56442100	      5.26190119	     -6.51791225	     -4.25221265	     -1.03539560	     -2.40795248	     -6.33383255	     -1.62729430	    -10.66444657	    104.64566897	     98.44936796	     -4.62796517	     -3.44739006	    -13.75430900	    103.36123144	     91.56474314
      0.01000000	      0.16261051	     -0.86576138	     -0.87031887	     -0.16142829	      0.90565278	     -0.58745044	     -2.11333458	     -3.24308699	      1.28629241	      2.86278526	      0.04996503	      9.77498441	      1.02670238	     -6.85715458	     -2.93384189	     -5.35695638	     -6.56664985	      1.47722907	      0.02578251	      8.55452291	      5.29111979	     -6.85715458	     -4.27332382	     -1.07312387	     -2.47260283	     -6.27361779	     -1.66964152	    -10.58953774	    104.63918940	     98.44430507	     -4.57970170	     -3.43304228	    -13.89343217	    103.24371859	     92.61770584
      0.02000000	      0.11157230	     -0.84671468	     -0.82806245	     -0.16160981	      0.90562408	     -0.58748188	     -2.09101105	     -3.25463335	      1.39700586	      2.78161058	      0.04854826	      9.65077907	      0.69654371	     -7.06883631	     -2.88507936	     -5.31716802	     -6.23580081	      1.41597352	      0.02471340	      8.32667843	      4.61565675	     -7.06883631	     -4.28222721	     -1.10836068	     -2.53371398	     -6.18453564	     -1.68004277	    -10.50747971	    104.70388051	     96.97164458	     -4.54475038	     -3.43070547	    -13.87763189	    103.39483308	     91.19284009
      0.03000000	      0.09962960	     -0.83291583	     -0.83417271	     -0.16172530	      0.90566000	     -0.58744950	     -2.05651987	     -3.27768484	      1.30147633	      2.81526342	      0.04913562	      9.88025624	      1.10141991	     -7.13540912	     -2.86705010	     -5.30087419	     -6.26910414	      1.41585923	      0.02471141	      8.33149969	      4.68699641	     -7.13540912	     -4.34682153	     -1.13577711	     -2.49632403	     -6.12516985	     -1.69370193	    -10.46932534	    104.84945322	     94.99044266	     -4.49670879	     -3.41620005	    -13.79840045	    103.58188850	     89.47302778
      0.04000000	      0.08079275	     -0.84584274	     -0.83266834	     -0.16186530	      0.90567500	     -0.58740198	     -2.06489911	     -3.24921842	      1.44615221	      2.73156466	      0.04767480	      9.59844663	      0.74843723	     -7.26052689	     -2.80158548	     -5.34397174	     -6.61756686	      1.46940878	      0.02564602	      8.49061389	      5.37277265	     -7.26052689	     -4.42333026	     -1.11525252	     -2.44409153	     -6.07744682	     -1.71237513	    -10.62533698	    104.62807483	     98.58929979	     -4.41511628	     -3.40401897	    -13.88806840	    103.16767568	     92.83438117
      0.05000000	      0.05186191	     -0.81914471	     -0.78621599	     -0.16198553	      0.90567650	     -0.58746127	     -2.04205423	     -3.27989156	      1.38503594	      2.71489062	      0.04738378	      9.56522700	      0.77921912	     -7.35123138	     -2.74540625	     -5.31422524	     -6.57316255	      1.47070859	      0.02566871	      8.48086163	      5.33055501	     -7.35123138	     -4.47519545	     -1.12692429	     -2.47543942	     -6.01204417	     -1.73738245	    -10.60509171	    104.65428202	     98.62515660	     -4.36953366	     -3.40641086	    -13.90288729	    103.10950923	     92.72861516
      0.06000000	      0.07258358	     -0.79750880	     -0.73696656	     -0.16205926	      0.90574916	     -0.58755462	     -2.05319777	     -3.30729942	      1.12965305	      2.72582987	      0.04757471	      9.49050694	      0.89589687	     -7.40786903	     -2.75282607	     -5.29146882	     -6.64525567	      1.44726219	      0.02525949	      8.18929933	      5.50088046	     -7.40786903	     -4.59390717	     -1.14365973	     -2.51072377	     -5.95154340	     -1.80622327	    -10.31683819	    105.25255671	     92.17319755	     -4.36393604	     -3.39969258	    -13.69728306	    103.84997634	     86.88089771
      0.07000000	      0.06180262	     -0.81088274	     -0.72464777	     -0.16219835	      0.90574565	     -0.58761424	     -2.08670772	     -3.30314116	      1.19409583	      2.63362947	      0.04596551	      9.72067498	      1.11143267	     -7.41663985	     -2.71480177	     -5.30427628	     -6.64106032	      1.48364667	      0.02589452	      8.49237416	      5.53656725	     -7.41663985	     -4.64897780	     -1.12807506	     -2.44902815	     -5.91978337	     -1.89409219	    -10.30299416	    105.27770863	     91.48810298	     -4.27442148	     -3.39296137	    -13.61684382	    103.77136089	     86.27381007
